#!OML:ASF E:\acrobat2\Project_11_07_03\Capture day 1\Session 1\Acrobat.ASF
:FULLY-SPECIFIED
:DEGREES
306
root 11.4454 18.4325 -31.9727 -37.4397 -74.2355 41.1444
lowerback 0.303254 -1.52396 2.3647
upperback -3.32678 -2.02684 -0.444873
thorax -3.69168 -1.10344 -1.70834
lowerneck -1.62732 2.18488 -0.803057
upperneck 0.846471 2.96015 -5.60119
head 0.611304 1.4135 -1.56728
rclavicle 2.95195e-014 1.59028e-014
rhumerus -18.0876 -35.7467 -5.75256
rradius 19.9084
rwrist 6.92137
rhand -13.0881 -50.1877
rfingers 7.12502
rthumb 13.0082 -79.7622
lclavicle 2.95195e-014 1.59028e-014
lhumerus 8.45624 8.43417 2.26217
lradius 21.9815
lwrist 10.2745
lhand -10.2176 -5.33431
lfingers 7.12502
lthumb 15.7741 24.0429
rfemur 13.2348 23.5317 12.0059
rtibia -6.20791
rfoot -45.8811 -40.6673
rtoes 24.3619
lfemur -4.6576 -9.738 10.2511
ltibia -3.656
lfoot -44.6938 19.7852
ltoes 59.0314
307
root 11.4437 18.429 -31.9496 -36.7531 -74.1819 40.4523
lowerback 0.288539 -1.52966 2.55306
upperback -3.31799 -2.0315 -0.476944
thorax -3.68302 -1.11181 -1.84714
lowerneck -1.57619 2.19936 -0.787156
upperneck 0.827272 2.97717 -5.50738
head 0.595562 1.42478 -1.54049
rclavicle -4.57205e-015 -1.90833e-014
rhumerus -18.1202 -35.7555 -5.70057
rradius 19.8678
rwrist 6.84259
rhand -13.1884 -50.2504
rfingers 7.12502
rthumb 12.9116 -79.831
lclavicle -4.57205e-015 -1.90833e-014
lhumerus 8.49843 8.27337 2.07912
lradius 22.0366
lwrist 10.6106
lhand -10.3375 -5.31027
lfingers 7.12502
lthumb 15.6586 24.0761
rfemur 13.2435 23.3297 12.0406
rtibia -6.19623
rfoot -45.5272 -40.9004
rtoes 23.8228
lfemur -4.85453 -9.51552 10.4225
ltibia -3.60529
lfoot -44.8917 19.5466
ltoes 59.2358
308
root 11.4393 18.4258 -31.9258 -36.1461 -74.1769 39.7858
lowerback 0.296617 -1.5917 2.76281
upperback -3.28256 -2.10943 -0.491224
thorax -3.66402 -1.15629 -1.97657
lowerneck -1.54587 2.28207 -0.872152
upperneck 0.790626 3.08604 -5.40788
head 0.578268 1.48121 -1.49342
rclavicle -1.90833e-014 4.77083e-015
rhumerus -17.9342 -35.8531 -5.81834
rradius 19.8409
rwrist 6.91395
rhand -13.2008 -50.3375
rfingers 7.12502
rthumb 12.8997 -79.9188
lclavicle -1.90833e-014 4.77083e-015
lhumerus 8.48049 8.6149 1.97701
lradius 21.9381
lwrist 10.4829
lhand -10.509 -5.27476
lfingers 7.12502
lthumb 15.4934 24.1244
rfemur 13.2969 23.0264 12.0764
rtibia -6.20931
rfoot -45.1654 -40.9114
rtoes 23.4845
lfemur -4.91683 -9.59184 10.6007
ltibia -3.61753
lfoot -45.1229 19.6562
ltoes 59.2964
309
root 11.4328 18.422 -31.9007 -35.9964 -74.1631 39.5988
lowerback 0.299429 -1.59129 2.79981
upperback -3.25819 -2.10838 -0.51202
thorax -3.6426 -1.15647 -2.01911
lowerneck -1.59273 2.30618 -0.942126
upperneck 0.878324 3.12474 -5.4731
head 0.614362 1.49634 -1.50089
rclavicle 8.15017e-015 -1.27222e-014
rhumerus -17.8615 -36.1725 -5.7649
rradius 19.8259
rwrist 7.10905
rhand -13.1499 -50.4973
rfingers 7.12502
rthumb 12.9487 -80.0755
lclavicle 8.15017e-015 -1.27222e-014
lhumerus 8.69188 9.48996 2.24532
lradius 21.6794
lwrist 9.51448
lhand -10.5134 -5.46009
lfingers 7.12502
lthumb 15.4892 23.9394
rfemur 13.369 22.9502 12.0354
rtibia -6.18495
rfoot -45.398 -40.7728
rtoes 23.1494
lfemur -4.91723 -9.52332 10.6138
ltibia -3.61882
lfoot -45.0487 20.0025
ltoes 59.3375
310
root 11.4256 18.4179 -31.8726 -35.7334 -74.1241 39.2993
lowerback 0.29413 -1.56076 2.79074
upperback -3.2428 -2.06758 -0.504941
thorax -3.62062 -1.13513 -2.00876
lowerneck -1.56973 2.28749 -1.00136
upperneck 0.926685 3.1023 -5.54904
head 0.625419 1.4828 -1.5152
rclavicle 1.98785e-014 3.18055e-015
rhumerus -17.8355 -36.2985 -5.61806
rradius 19.8037
rwrist 6.90999
rhand -13.2592 -50.6323
rfingers 7.12502
rthumb 12.8433 -80.2172
lclavicle 1.98785e-014 3.18055e-015
lhumerus 8.63133 8.94098 2.01925
lradius 21.8297
lwrist 9.99606
lhand -10.4302 -5.32431
lfingers 7.12502
lthumb 15.5693 24.069
rfemur 13.477 22.9983 12.0757
rtibia -6.13711
rfoot -45.8005 -40.7627
rtoes 23.0174
lfemur -4.94006 -9.26425 10.589
ltibia -3.60043
lfoot -44.7857 20.551
ltoes 59.3113
